<svg width="40" height="40" viewBox="0 0 40 40" fill="none" xmlns="http://www.w3.org/2000/svg">
<path d="M20.0001 25C21.389 25 22.5695 24.5139 23.5417 23.5417C24.514 22.5694 25.0001 21.3889 25.0001 20C25.0001 18.6111 24.514 17.4305 23.5417 16.4583C22.5695 15.4861 21.389 15 20.0001 15C18.6112 15 17.4306 15.4861 16.4584 16.4583C15.4862 17.4305 15.0001 18.6111 15.0001 20C15.0001 21.3889 15.4862 22.5694 16.4584 23.5417C17.4306 24.5139 18.6112 25 20.0001 25ZM20.0001 28.3333C17.6945 28.3333 15.7292 27.5208 14.1042 25.8958C12.4792 24.2708 11.6667 22.3055 11.6667 20C11.6667 17.6944 12.4792 15.7292 14.1042 14.1042C15.7292 12.4792 17.6945 11.6667 20.0001 11.6667C22.3056 11.6667 24.2709 12.4792 25.8959 14.1042C27.5209 15.7292 28.3334 17.6944 28.3334 20C28.3334 22.3055 27.5209 24.2708 25.8959 25.8958C24.2709 27.5208 22.3056 28.3333 20.0001 28.3333ZM8.33341 21.6667H1.66675V18.3333H8.33341V21.6667ZM38.3334 21.6667H31.6667V18.3333H38.3334V21.6667ZM18.3334 8.33332V1.66666H21.6667V8.33332H18.3334ZM18.3334 38.3333V31.6667H21.6667V38.3333H18.3334ZM10.6667 12.9167L6.45841 8.87499L8.83341 6.41666L12.8334 10.5833L10.6667 12.9167ZM31.1667 33.5833L27.1251 29.375L29.3334 27.0833L33.5417 31.125L31.1667 33.5833ZM27.0834 10.6667L31.1251 6.45832L33.5834 8.83332L29.4167 12.8333L27.0834 10.6667ZM6.41675 31.1667L10.6251 27.125L12.9167 29.3333L8.87508 33.5417L6.41675 31.1667Z" fill="white"/>
</svg>
